<svg xmlns="http://www.w3.org/2000/svg" xml:space="preserve" width="512" height="512" id="spaceship">
  <path fill="#B8D2FF" d="M293.952 379.707h48.91v-26.478l-40.986-42.141-16.727-45.1v80.389l8.469 22zM223.079 379.707h-48.91v-26.478l40.986-42.141 16.726-45.1v80.389l-8.468 22z"></path>
  <path fill="#B8D2FF" d="M301.375 299.043V154.1c-4.55-26.98-15.271-49.35-24.851-64.99-9.579-15.62-18.029-24.51-18.029-24.51-9.71 2.11-42.88 62.71-42.88 89.5v150.611l17.003-37.49-.667-33.177s3.594-30 25.964-42.333c0 0 24.037 15.333 26.37 41.667l-.667 33.844 17.757 39.76v-7.939zm-81.76-132.013c6.75-4.28 20.58-11.26 38.779-11.07 16.82.17 29.69 6.2 37.53 11.22l.051-.08c.08 1.16.14 2.33.189 3.5-9.21-4.79-21.96-9.27-37.63-9.44-16.641-.2-30.181 4.73-39.12 9.31.051-1.15.121-2.29.201-3.44zM425.095 402.215c-2.316-3.25-6.107-5.376-10.401-5.376-7.056 0-12.774 5.72-12.774 12.774 0 1.709.342 3.338.951 4.827a21.133 21.133 0 0 0-3.996-.39c-11.647 0-21.089 9.441-21.089 21.089 0 .242.028.477.036.718l-2.71 2.359a16.904 16.904 0 0 0-9.249-2.748c-2.791 0-5.417.686-7.74 1.877.004-.121.018-.239.018-.361 0-6.2-5.025-11.227-11.226-11.227a11.198 11.198 0 0 0-8.604 4.021c-1.953-3.31-5.545-5.536-9.665-5.536-5.828 0-10.615 4.44-11.171 10.122-2.498-4.152-7.034-6.938-12.231-6.938-5.371 0-10.045 2.969-12.483 7.352-23.622-4.182-23.887-28.566-26.475-49.066h-17.75l-3.559 28.34s-4.371 18.176-25.055 21.104c-2.213-5.023-7.228-8.534-13.068-8.534-5.427 0-10.146 3.027-12.563 7.484-1.272-4.803-5.637-8.348-10.84-8.348-3.2 0-6.08 1.346-8.125 3.494a11.185 11.185 0 0 0-8.125-3.494c-5.998 0-10.883 4.708-11.195 10.629a16.906 16.906 0 0 0-9.772-3.104 16.917 16.917 0 0 0-10.956 4.013 21.22 21.22 0 0 0 .268-3.2c0-11.646-9.441-21.088-21.088-21.088-1.699 0-3.343.223-4.926.602.414-1.258.646-2.6.646-3.996 0-7.055-5.72-12.774-12.774-12.774-5.376 0-9.968 3.325-11.853 8.027l-1.065-.655v69l342.982 2.27v-74.77l-2.373 1.503zM317.816 35.4c-9.082 0-16.444 7.363-16.444 16.445 0 13.495 10.939 24.435 24.434 24.435h30.527c-5.938 3.94-9.854 10.682-9.854 18.341 0 12.15 9.85 22 22 22h59.962V35.4H317.816z"></path>
  <path fill="#1F4499" d="M361.339 214.121h9.047v9.046h-9.047zM109.934 165.695h9.047v9.047h-9.047zM400.968 181.125h9.047v9.046h-9.047zM148.917 124.007h9.047v9.047h-9.047zM106.68 91.097h9.047v9.047h-9.047zM356.815 140.956h9.047v9.047h-9.047z"></path>
  <path fill="#1F4499" d="M79.485 32.4v447.2h353.029V32.4H79.485zm10 211.311h30.699l27.101-18.761v6.23l-25.32 17.531h-32.48v-5zm0 44.539h21.72v-10h-21.72v-19.539h35.6l22.2-15.361v42.701l-30.23 20.93h-27.57V288.25zm0 28.73h12.17v74.23c-4.07-1.07-8.32-.701-12.17 1.049V316.98zm333.03 76.05c-4.22-1.899-8.92-2.149-13.319-.66-7.37 2.49-12.091 9.25-12.38 16.591-2.25.119-4.53.539-6.771 1.299-9.59 3.24-15.979 11.701-17.08 21.141-.62-.21-1.25-.41-1.89-.57-11.939-3.029-24.12 4.23-27.141 16.18l9.69 2.451c1.67-6.601 8.399-10.611 15-8.94 6.601 1.67 10.61 8.399 8.94 15l9.699 2.45c1.461-5.78.58-11.791-2.47-16.92-.38-.631-.78-1.23-1.2-1.811h.01c-2.719-8.04 1.61-16.79 9.641-19.51 8.04-2.71 16.79 1.609 19.51 9.649l9.48-3.2c-2.57-7.59-8.4-13.17-15.41-15.719-.35-3.73 1.87-7.371 5.57-8.621a8.284 8.284 0 0 1 6.31.42 8.193 8.193 0 0 1 3.81 3.9v63.44H89.485v-64.049a8.206 8.206 0 0 1 3.899-4.09 8.191 8.191 0 0 1 6.311-.421c3.699 1.25 5.92 4.87 5.569 8.601-.88.32-1.75.689-2.6 1.109-6.08 3.01-10.63 8.2-12.8 14.62l9.47 3.21c1.32-3.9 4.07-7.04 7.76-8.869a15.278 15.278 0 0 1 11.75-.781c8.04 2.721 12.37 11.471 9.65 19.511h.02c-3.819 5.2-5.38 12-3.68 18.729l9.7-2.449c-1.67-6.601 2.34-13.33 8.939-15 3.19-.811 6.521-.33 9.351 1.359a12.284 12.284 0 0 1 5.649 7.58l9.69-2.46c-1.46-5.78-5.09-10.649-10.22-13.71s-11.141-3.93-16.931-2.47c-.64.159-1.27.359-1.88.569-1.11-9.439-7.49-17.89-17.09-21.129a25.604 25.604 0 0 0-6.76-1.311 18.403 18.403 0 0 0-3.63-10.23V316.98h8.529l27.101-18.76v17.47h10v-22.21h17.6v51.54l-5.52 5.67v33.51h5.79v6.271c0 7.16 5.83 13 13 13h12.13c7.17 0 13-5.84 13-13V384.2h3.62v6.66h11.71v1.21c0 7.16 5.83 13 13 13s13-5.84 13-13v-1.21h6v1.21c0 7.16 5.83 13 13 13s13-5.84 13-13v-1.21h12.04v-6.66h4.17v6.271c0 7.16 5.83 13 13 13h12.13c7.16 0 13-5.84 13-13V384.2h5.78v-33.51l-6.051-6.21V145.59c0-15.94-7.18-30.71-19.199-39.51l-2.961-2.16-2.949 2.16c-7.66 5.61-13.34 13.65-16.471 22.86-1.27-4.13-2.699-8.22-4.31-12.26-7.22-18.15-18.069-35.92-33.15-54.32l-3.859-4.72-3.87 4.72c-18.19 22.2-30.44 43.8-37.46 66.56-3.12-9.2-8.8-17.23-16.46-22.84l-2.95-2.16-2.95 2.16c-12.029 8.8-19.21 23.57-19.21 39.51v64.82h-17.6v-24.14h-10v26.52l-30.23 20.92H89.485V42.4h206.06a30.051 30.051 0 0 0-1.271 8.66c0 16.66 13.561 30.22 30.23 30.22h21.7c-3 4.14-4.62 9.11-4.62 14.34 0 13.42 10.79 24.34 24.051 24.34h56.879v273.07zM174.885 238.8v44.68h-17.6V238.8h17.6zm-17.6-10v-8.39h17.6v8.39h-17.6zm22.08 130.671v-4.711l38.18-39.26 2.13-2.189 7.01-18.92v50.5l-9.779 21.199v8.11h-37.54v-4.729h22.96v-10h-22.961zm29.84-191.501v4h-24.32v-4h24.32zm-24.32-10v-12.38c0-11.37 4.49-21.94 12.16-29.01 7.67 7.07 12.16 17.64 12.16 29.01v12.38h-24.32zm24.32 24v37.55h-24.32v-37.55h24.32zm0 47.551V303.1h-24.32v-73.579h24.32zm-3.28 83.579-21.04 21.641V313.1h21.04zm124.76-145.13v4h-24.31v-4h24.31zm-24.31-10v-12.38c0-11.37 4.479-21.94 12.149-29.01 7.681 7.07 12.16 17.64 12.16 29.01v12.38h-24.309zm24.31 24v37.55h-24.31v-37.55h24.31zm0 47.551V303.1h-24.31v-73.579h24.31zm0 83.579v21.1l-20.52-21.101h20.52zm6.05 41.66v4.711h-22.961v10h22.961v4.729h-38.08v-8.1l-9.73-21.209V293.08l7.5 20.23m34.53 70.89v6.271c0 1.649-1.351 3-3 3h-12.13c-1.65 0-3-1.351-3-3V384.2h18.13zm-104.05-3.34v-8.67h61.75v8.67h-61.75zm49.71 10v1.21c0 1.65-1.341 3-3 3-1.65 0-3-1.35-3-3v-1.21h6zm-32 0v1.21c0 1.65-1.341 3-3 3-1.65 0-3-1.35-3-3v-1.21h6zm13.78-234.9c16.82.17 29.69 6.2 37.53 11.22l.051-.08c.08 1.16.14 2.33.189 3.5-9.21-4.79-21.96-9.27-37.63-9.44-16.641-.2-30.181 4.73-39.12 9.31.05-1.15.12-2.29.2-3.44 6.75-4.28 20.58-11.259 38.78-11.07zm-37.5-1.13c4.141-28.61 15.99-54.56 36.891-81.3 12.41 15.87 21.51 31.25 27.72 46.84 4.43 11.15 7.48 22.59 9.19 34.59-8.9-4.59-21.16-8.84-36.19-9-15.941-.18-28.941 4.48-37.611 8.87zm37.53 16.33c16.78.18 29.76 5.97 37.95 11.05v34.83c-4.5-2.34-9.21-4.28-14.101-5.78a62.544 62.544 0 0 0-21.729-24.34l-2.74-1.8-2.739 1.8c-9.44 6.18-16.851 14.61-21.73 24.34-4.86 1.5-9.63 3.45-14.13 5.79v-35.01c7.299-4.46 21.189-11.07 39.219-10.88zm28.48 52.44a74.002 74.002 0 0 1 9.47 4.92v55.89l-7.45-20.09v-24.9c0-5.42-.699-10.72-2.02-15.82zm-8.009 14.921c0 .3.029.6.029.9v2.82h-42.24v-2.82c0-.3.03-.6.03-.9h42.181zm-41.061-10a52.544 52.544 0 0 1 19.97-31.32 52.54 52.54 0 0 1 19.97 31.32h-39.94zm-9.13-4.911a62.98 62.98 0 0 0-2.021 15.81v26.21l-7.479 20.189v-57.3a74.17 74.17 0 0 1 9.5-4.909zm6.09 127.58h46.011l5.06 11h-56.141l5.07-11zm44.13-10h-42.24v-73.77l.08-.199-.08-.03v-14.95h42.24v88.949zm-75.64 43.01v6.271c0 1.649-1.351 3-3 3h-12.13c-1.65 0-3-1.351-3-3V384.2h18.13zm219.23-312.92h-21.779v10h21.779v28.68h-56.879c-7.75 0-14.051-6.43-14.051-14.34 0-3.84 1.471-7.45 4.141-10.16 2.66-2.7 6.18-4.18 9.91-4.18h12.35v-10h-53.48c-11.15 0-20.23-9.07-20.23-20.22 0-3.021.681-5.96 1.961-8.66h116.279v28.88z"></path>
  <path fill="#1F4499" d="M244.435 260.961h9.051v9.049h-9.051zM262.085 260.961h9.04v9.049h-9.04zM314.007 196.222h9.047v9.047h-9.047zM192.52 196.222h9.047v9.047h-9.047zM314.136 261.788h9.047v9.047h-9.047zM192.649 261.788h9.047v9.047h-9.047zM246.695 307.24h22.44v10h-22.44zM246.431 322.848h22.442v10h-22.442zM222.534 428.125c-3.715-4.55-9.362-7.463-15.681-7.463-4.591 0-8.816 1.555-12.216 4.141-2.28-2.723-5.533-4.643-9.324-5.139-8.02-1.048-15.404 4.624-16.454 12.646l9.916 1.297a4.649 4.649 0 0 1 1.786-3.1 4.643 4.643 0 0 1 3.454-.929c2.122.277 3.708 1.952 4 3.973a20.099 20.099 0 0 0-1.402 7.351h10c0-1.735.438-3.37 1.203-4.805l.144.02c.014-.104.014-.207.025-.312 1.771-3.068 5.078-5.144 8.868-5.144 5.646 0 10.24 4.594 10.24 10.24h10c0-1.15-.119-2.271-.304-3.37 13.413-3.039 23.46-15.048 23.46-29.366h-10c.001 10.279-7.752 18.769-17.715 19.96zM337.63 423.384a14.59 14.59 0 0 0-10.846-2.916c-3.791.496-7.045 2.416-9.326 5.14-3.399-2.586-7.624-4.141-12.215-4.141-5.796 0-11.016 2.463-14.709 6.379-9.104-1.92-15.961-10.013-15.961-19.68h-10.001c0 13.442 8.854 24.854 21.036 28.715a20.163 20.163 0 0 0-.605 4.826h10c0-5.646 4.594-10.24 10.24-10.24 3.789 0 7.098 2.075 8.868 5.144.011.104.011.207.024.312l.145-.02a10.171 10.171 0 0 1 1.203 4.805h10c0-2.596-.51-5.07-1.404-7.354a4.642 4.642 0 0 1 .902-2.184 4.64 4.64 0 0 1 3.1-1.786 4.638 4.638 0 0 1 3.454.929 4.648 4.648 0 0 1 1.786 3.1l9.916-1.297a14.58 14.58 0 0 0-5.607-9.732z"></path>
</svg>
